<svg xmlns="http://www.w3.org/2000/svg" xmlns:xlink="http://www.w3.org/1999/xlink" viewBox="0 0 532 639.44"><defs><style>.cls-1{fill:#212121;}.cls-2{fill:url(#linear-gradient);}</style><linearGradient id="linear-gradient" x1="36.87" y1="211.18" x2="532" y2="211.18" gradientUnits="userSpaceOnUse"><stop offset="0" stop-color="#6d28d9"/><stop offset="0.39" stop-color="#6b28d6"/><stop offset="0.66" stop-color="#6526cd"/><stop offset="0.91" stop-color="#5a24bd"/><stop offset="1" stop-color="#5423b5"/></linearGradient></defs><g id="Layer_2" data-name="Layer 2"><g id="Layer_1-2" data-name="Layer 1"><path class="cls-1" d="M133.43,142.78l25,43.37a216.18,216.18,0,0,1,215.06,0l25-43.37a266.32,266.32,0,0,0-265.14,0Z"/><path class="cls-2" d="M532,370.21l-278.48-1.77A42.22,42.22,0,0,1,228,348.25L95.05,118c-11.44-19.82-3.81-37.31,0-43.92s15.15-22,38-22H398.92c22.88,0,34.22,15.35,38,22s11.44,24.1,0,43.92L322,317.11h60.23l99.88-173C519.1,80.06,472.87,0,398.92,0H133.08c-74,0-120.18,80.06-83.2,144.11L182.8,374.33a94.9,94.9,0,0,0,70.68,47.23l274,.81A267.35,267.35,0,0,0,532,373.44C532,372.36,532,371.29,532,370.21Z"/><path class="cls-1" d="M470.4,443.23c-29,85-109.57,146.14-204.4,146.14-119.25,0-215.93-96.67-215.93-215.93A214.91,214.91,0,0,1,87.79,251.5L60.61,204.41A264.89,264.89,0,0,0,0,373.44c0,146.91,119.09,266,266,266,122.76,0,226.07-83.16,256.73-196.21Z"/></g></g></svg>